<svg width="16" height="17" viewBox="0 0 16 17" fill="none" xmlns="http://www.w3.org/2000/svg">
<path d="M5.07317 14.939H1.7561C1.64833 14.939 1.56098 14.8517 1.56098 14.7439V11.4268C1.56098 10.9958 1.21154 10.6463 0.780488 10.6463C0.349436 10.6463 0 10.9958 0 11.4268V14.939C0 15.8011 0.698873 16.5 1.56098 16.5H5.07317C5.50422 16.5 5.85366 16.1506 5.85366 15.7195C5.85366 15.2885 5.50422 14.939 5.07317 14.939Z" fill="#0C6B58"/>
<path d="M0.780488 6.35366C1.21154 6.35366 1.56098 6.00422 1.56098 5.57317V2.2561C1.56098 2.14833 1.64833 2.06098 1.7561 2.06098H5.07317C5.50422 2.06098 5.85366 1.71154 5.85366 1.28049C5.85366 0.849436 5.50422 0.5 5.07317 0.5H1.56098C0.698873 0.5 0 1.19887 0 2.06098V5.57317C0 6.00422 0.349436 6.35366 0.780488 6.35366Z" fill="#0C6B58"/>
<path d="M15.2197 10.6463C14.7886 10.6463 14.4392 10.9958 14.4392 11.4268V14.7439C14.4392 14.8517 14.3518 14.939 14.244 14.939H10.927C10.4959 14.939 10.1465 15.2885 10.1465 15.7195C10.1465 16.1506 10.4959 16.5 10.927 16.5H14.4392C15.3013 16.5 16.0001 15.8011 16.0001 14.939V11.4268C16.0001 10.9958 15.6507 10.6463 15.2197 10.6463Z" fill="#0C6B58"/>
<path d="M14.4392 0.5H10.927C10.4959 0.5 10.1465 0.849436 10.1465 1.28049C10.1465 1.71154 10.4959 2.06098 10.927 2.06098H14.244C14.3518 2.06098 14.4392 2.14833 14.4392 2.2561V5.57317C14.4392 6.00422 14.7886 6.35366 15.2197 6.35366C15.6507 6.35366 16.0001 6.00422 16.0001 5.57317V2.06098C16.0001 1.19887 15.3013 0.5 14.4392 0.5Z" fill="#0C6B58"/>
<rect y="7.71953" width="16" height="1.56098" rx="0.780488" fill="#0C6B58"/>
</svg>
