<svg width="49" height="48" viewBox="0 0 49 48" fill="none" xmlns="http://www.w3.org/2000/svg">
<path fill-rule="evenodd" clip-rule="evenodd" d="M9.5 41.072C13.6421 41.072 17 37.7142 17 33.572C17 29.4299 13.6421 26.072 9.5 26.072C5.35786 26.072 2 29.4299 2 33.572C2 37.7142 5.35786 41.072 9.5 41.072Z" stroke="#423D33" stroke-width="2" stroke-linecap="round" stroke-linejoin="round"/>
<path fill-rule="evenodd" clip-rule="evenodd" d="M39.5 41.072C43.6421 41.072 47 37.7142 47 33.572C47 29.4299 43.6421 26.072 39.5 26.072C35.3579 26.072 32 29.4299 32 33.572C32 37.7142 35.3579 41.072 39.5 41.072Z" stroke="#423D33" stroke-width="2" stroke-linecap="round" stroke-linejoin="round"/>
<path d="M39.5008 33.572L29.5288 11.354C29.3515 10.9606 29.3524 10.51 29.5313 10.1173C29.7102 9.72472 30.0497 9.4283 30.4628 9.30397L36.4308 7.50397" stroke="#423D33" stroke-width="2" stroke-linecap="round" stroke-linejoin="round"/>
<path d="M18.5 14.072H8" stroke="#423D33" stroke-width="2" stroke-linecap="round" stroke-linejoin="round"/>
<path d="M17.534 22.904L12.5 14.072" stroke="#423D33" stroke-width="2" stroke-linecap="round" stroke-linejoin="round"/>
<path d="M9.5 33.572L17.534 22.904L32.846 18.75" stroke="#423D33" stroke-width="2" stroke-linecap="round" stroke-linejoin="round"/>
</svg>
