<svg width="49" height="49" viewBox="0 0 49 49" fill="none" xmlns="http://www.w3.org/2000/svg">
<path fill-rule="evenodd" clip-rule="evenodd" d="M27.5 14C30.8137 14 33.5 11.3137 33.5 8C33.5 4.68629 30.8137 2 27.5 2C24.1863 2 21.5 4.68629 21.5 8C21.5 11.3137 24.1863 14 27.5 14Z" stroke="#423D33" stroke-width="2" stroke-linecap="round" stroke-linejoin="round"/>
<path d="M18.5 13.41L36.5 2.59204" stroke="#423D33" stroke-width="2" stroke-linecap="round" stroke-linejoin="round"/>
<path fill-rule="evenodd" clip-rule="evenodd" d="M44.1745 20.522C42.8028 19.6038 40.9477 19.9605 40.0145 21.322C39.9945 21.354 37.7605 24.5 35.0005 24.5C32.964 24.1746 31.1513 23.0252 29.9885 21.322L29.9425 21.354C29.4071 20.5216 28.49 20.0131 27.5005 20C25.8436 20 24.5005 21.3431 24.5005 23V30.5L15.9585 42.41C15.3714 43.319 15.3193 44.4737 15.8222 45.4319C16.3251 46.39 17.305 47.0031 18.3866 47.0363C19.4682 47.0694 20.4838 46.5175 21.0445 45.592L27.5005 35.26L33.9585 45.592C34.5191 46.5175 35.5347 47.0694 36.6163 47.0363C37.6979 47.0031 38.6779 46.39 39.1807 45.4319C39.6836 44.4737 39.6316 43.319 39.0445 42.41L30.5005 30.5V29.4C31.8958 30.1082 33.4358 30.4847 35.0005 30.5C41.0365 30.5 44.8385 24.9 45.0005 24.666C45.9096 23.2922 45.5409 21.4422 44.1745 20.522Z" stroke="#423D33" stroke-width="2" stroke-linecap="round" stroke-linejoin="round"/>
<path d="M42.544 20.014L8 20" stroke="#423D33" stroke-width="2" stroke-linecap="round" stroke-linejoin="round"/>
<path fill-rule="evenodd" clip-rule="evenodd" d="M12.5 29H5C4.17157 29 3.5 28.3284 3.5 27.5V21.5C3.5 20.6716 4.17157 20 5 20H8L12.5 29Z" stroke="#423D33" stroke-width="2" stroke-linecap="round" stroke-linejoin="round"/>
</svg>
