<svg width="49" height="49" viewBox="0 0 49 49" fill="none" xmlns="http://www.w3.org/2000/svg">
<path d="M2 10.1C5.29889 10.5083 8.60586 9.40601 11 7.10004C12.7243 9.0099 15.1769 10.0999 17.75 10.0999C20.3231 10.0999 22.7757 9.0099 24.5 7.10004C26.2243 9.0099 28.6769 10.0999 31.25 10.0999C33.8231 10.0999 36.2757 9.0099 38 7.10004C40.3941 9.40601 43.7011 10.5083 47 10.1" stroke="#423D33" stroke-width="2" stroke-linecap="round" stroke-linejoin="round"/>
<path d="M5.15855 40.2581C14.7965 30.6201 17.9005 25.9001 26.6065 25.9001C32.3528 25.9106 37.7307 28.731 41.0065 33.4521C37.7314 38.174 32.3531 40.9946 26.6065 41.0041C18.1525 41.0041 15.2565 36.7401 5.06055 26.5461" stroke="#423D33" stroke-width="2" stroke-linecap="round" stroke-linejoin="round"/>
<path d="M30.5 31.852C30.5 32.2662 30.1642 32.602 29.75 32.602" stroke="#423D33" stroke-width="2" stroke-linecap="round" stroke-linejoin="round"/>
<path d="M29.75 31.1C30.1642 31.1 30.5 31.4358 30.5 31.85" stroke="#423D33" stroke-width="2" stroke-linecap="round" stroke-linejoin="round"/>
<path d="M29 31.852C29 31.4378 29.3358 31.102 29.75 31.102" stroke="#423D33" stroke-width="2" stroke-linecap="round" stroke-linejoin="round"/>
<path d="M29.75 32.602C29.3358 32.602 29 32.2662 29 31.852" stroke="#423D33" stroke-width="2" stroke-linecap="round" stroke-linejoin="round"/>
<path d="M43.25 26.602C42.8358 26.602 42.5 26.2662 42.5 25.852" stroke="#423D33" stroke-width="2" stroke-linecap="round" stroke-linejoin="round"/>
<path d="M44 25.852C44 26.2662 43.6642 26.602 43.25 26.602" stroke="#423D33" stroke-width="2" stroke-linecap="round" stroke-linejoin="round"/>
<path d="M43.25 25.1C43.6642 25.1 44 25.4358 44 25.85" stroke="#423D33" stroke-width="2" stroke-linecap="round" stroke-linejoin="round"/>
<path d="M42.5 25.852C42.5 25.4378 42.8358 25.102 43.25 25.102" stroke="#423D33" stroke-width="2" stroke-linecap="round" stroke-linejoin="round"/>
<path d="M40.25 17.602C39.8358 17.602 39.5 17.2662 39.5 16.852" stroke="#423D33" stroke-width="2" stroke-linecap="round" stroke-linejoin="round"/>
<path d="M41 16.852C41 17.2662 40.6642 17.602 40.25 17.602" stroke="#423D33" stroke-width="2" stroke-linecap="round" stroke-linejoin="round"/>
<path d="M40.25 16.1C40.4489 16.1 40.6397 16.1791 40.7803 16.3197C40.921 16.4604 41 16.6511 41 16.85" stroke="#423D33" stroke-width="2" stroke-linecap="round" stroke-linejoin="round"/>
<path d="M39.5 16.852C39.5 16.4378 39.8358 16.102 40.25 16.102" stroke="#423D33" stroke-width="2" stroke-linecap="round" stroke-linejoin="round"/>
</svg>
