<svg width="121" height="108" viewBox="0 0 121 108" fill="none" xmlns="http://www.w3.org/2000/svg">
<path d="M17.9805 84.319C31.1459 102.665 54.6482 110.414 76.1434 103.497C97.6386 96.5802 112.211 76.5788 112.207 53.9981V45.3334" stroke="#EFFCF6" stroke-width="4" stroke-linecap="round" stroke-linejoin="round"/>
<path d="M102.43 23.6487C89.2556 5.31958 65.7585 -2.41365 44.2733 4.50832C22.788 11.4303 8.22433 31.4257 8.22705 53.9985V62.6632" stroke="#EFFCF6" stroke-width="4" stroke-linecap="round" stroke-linejoin="round"/>
<path d="M2 56.1549L8.09241 62.9243L14.1848 56.1549" stroke="#EFFCF6" stroke-width="4" stroke-linecap="round" stroke-linejoin="round"/>
<path d="M118.094 52.0932L112.002 45.3239L105.91 52.0932" stroke="#EFFCF6" stroke-width="4" stroke-linecap="round" stroke-linejoin="round"/>
<path fill-rule="evenodd" clip-rule="evenodd" d="M57.214 56.6449C57.214 56.6449 52.2476 65.1494 45.0415 63.9484C30.4345 61.5139 32.869 42.0379 28 34.7344C37.5664 30.8236 48.4268 31.7286 57.214 37.1689C64.5078 42.0379 64.5078 49.3414 57.214 56.6449Z" stroke="#EFFCF6" stroke-width="4" stroke-linecap="round" stroke-linejoin="round"/>
<path fill-rule="evenodd" clip-rule="evenodd" d="M73.1923 63.78C73.1923 63.78 76.6428 69.6812 81.6482 68.8535C91.7919 67.1623 90.0878 53.6362 93.4831 48.5627C86.8383 45.8489 79.2962 46.4775 73.1923 50.2539C68.1221 53.6362 68.1221 58.7097 73.1923 63.78Z" stroke="#EFFCF6" stroke-width="4" stroke-linecap="round" stroke-linejoin="round"/>
<path d="M47.4761 46.907C47.4761 46.907 62.0831 54.2105 64.5176 78.5555C69.3866 63.9485 76.6901 59.0795 76.6901 59.0795" stroke="#EFFCF6" stroke-width="4" stroke-linecap="round" stroke-linejoin="round"/>
</svg>
