<svg width="49" height="48" viewBox="0 0 49 48" fill="none" xmlns="http://www.w3.org/2000/svg">
<path d="M27.5203 43.5C27.5203 43.5 38.0203 28.5 38.0203 25.5C38.0203 22.5 37.4423 19.5 38.0203 19.5C41.8004 19.511 45.1845 17.1587 46.4914 13.6116C47.7983 10.0646 46.7494 6.07893 43.8658 3.63467C40.9823 1.19041 36.8786 0.808554 33.5936 2.6788C30.3085 4.54906 28.5423 8.27278 29.1723 12C26.3397 10.1741 22.7008 10.1741 19.8683 12C20.492 8.27989 18.726 4.56614 15.4467 2.70203C12.1675 0.837908 8.07301 1.22026 5.19557 3.65932C2.31813 6.09838 1.27027 10.0749 2.57206 13.6152C3.87386 17.1556 7.24817 19.506 11.0203 19.5C11.5983 19.5 11.0203 22.5 11.0203 25.5C11.0203 28.5 21.5203 43.5 21.5203 43.5" stroke="#423D33" stroke-width="2" stroke-linecap="round" stroke-linejoin="round"/>
<path fill-rule="evenodd" clip-rule="evenodd" d="M24.5195 46.5C26.1764 46.5 27.5195 45.1569 27.5195 43.5C27.5195 41.8431 26.1764 40.5 24.5195 40.5C22.8627 40.5 21.5195 41.8431 21.5195 43.5C21.5195 45.1569 22.8627 46.5 24.5195 46.5Z" stroke="#423D33" stroke-width="2" stroke-linecap="round" stroke-linejoin="round"/>
<path d="M19.2695 19.5C19.6837 19.5 20.0195 19.8358 20.0195 20.25" stroke="#423D33" stroke-width="2" stroke-linecap="round" stroke-linejoin="round"/>
<path d="M18.5195 20.25C18.5195 19.8358 18.8553 19.5 19.2695 19.5" stroke="#423D33" stroke-width="2" stroke-linecap="round" stroke-linejoin="round"/>
<path d="M19.2695 21C18.8553 21 18.5195 20.6642 18.5195 20.25" stroke="#423D33" stroke-width="2" stroke-linecap="round" stroke-linejoin="round"/>
<path d="M20.0195 20.25C20.0195 20.6642 19.6837 21 19.2695 21" stroke="#423D33" stroke-width="2" stroke-linecap="round" stroke-linejoin="round"/>
<path d="M29.7695 19.5C30.1837 19.5 30.5195 19.8358 30.5195 20.25" stroke="#423D33" stroke-width="2" stroke-linecap="round" stroke-linejoin="round"/>
<path d="M29.0195 20.25C29.0195 19.8358 29.3553 19.5 29.7695 19.5" stroke="#423D33" stroke-width="2" stroke-linecap="round" stroke-linejoin="round"/>
<path d="M29.7695 21C29.3553 21 29.0195 20.6642 29.0195 20.25" stroke="#423D33" stroke-width="2" stroke-linecap="round" stroke-linejoin="round"/>
<path d="M30.5195 20.25C30.5195 20.6642 30.1837 21 29.7695 21" stroke="#423D33" stroke-width="2" stroke-linecap="round" stroke-linejoin="round"/>
<path d="M35.4961 31.158L45.5201 34.5" stroke="#423D33" stroke-width="2" stroke-linecap="round" stroke-linejoin="round"/>
<path d="M32.9688 35.312L39.5207 43.5" stroke="#423D33" stroke-width="2" stroke-linecap="round" stroke-linejoin="round"/>
<path d="M13.5435 31.158L3.51953 34.5" stroke="#423D33" stroke-width="2" stroke-linecap="round" stroke-linejoin="round"/>
<path d="M16.0695 35.312L9.51953 43.5" stroke="#423D33" stroke-width="2" stroke-linecap="round" stroke-linejoin="round"/>
</svg>
