<svg width="49" height="48" viewBox="0 0 49 48" fill="none" xmlns="http://www.w3.org/2000/svg">
<path fill-rule="evenodd" clip-rule="evenodd" d="M5.28548 46.5C4.44281 46.4995 3.63919 46.1447 3.07117 45.5223C2.50314 44.8998 2.22307 44.0672 2.29948 43.228L4.75348 13.228C4.89408 11.6836 6.18865 10.5008 7.73948 10.5H41.2595C42.8111 10.4998 44.1068 11.6828 44.2475 13.228L46.7015 43.228C46.7779 44.0675 46.4976 44.9005 45.9291 45.523C45.3606 46.1455 44.5565 46.5001 43.7135 46.5H5.28548Z" stroke="#423D33" stroke-width="2" stroke-linecap="round" stroke-linejoin="round"/>
<path d="M32 10.5V9C32 4.85786 28.6421 1.5 24.5 1.5C20.3579 1.5 17 4.85786 17 9V10.5" stroke="#423D33" stroke-width="2" stroke-linecap="round" stroke-linejoin="round"/>
<path d="M20 31.5H12.5V39" stroke="#423D33" stroke-width="2" stroke-linecap="round" stroke-linejoin="round"/>
<path d="M35.3335 32.966C33.7002 37.7391 29.0641 40.8197 24.0309 40.4762C18.9978 40.1327 14.8232 36.4508 13.8535 31.5" stroke="#423D33" stroke-width="2" stroke-linecap="round" stroke-linejoin="round"/>
<path d="M29 25.5H36.5V18" stroke="#423D33" stroke-width="2" stroke-linecap="round" stroke-linejoin="round"/>
<path d="M13.666 24.0341C15.2993 19.2609 19.9355 16.1804 24.9686 16.5239C30.0018 16.8674 34.1764 20.5493 35.146 25.5001" stroke="#423D33" stroke-width="2" stroke-linecap="round" stroke-linejoin="round"/>
</svg>
