<svg width="49" height="48" viewBox="0 0 49 48" fill="none" xmlns="http://www.w3.org/2000/svg">
<path fill-rule="evenodd" clip-rule="evenodd" d="M19.9688 14.282C19.9688 18.838 24.4688 22.532 24.4688 22.532C24.4688 22.532 28.9688 18.838 28.9688 14.282C28.9688 9.72598 24.4688 6.03198 24.4688 6.03198C24.4688 6.03198 19.9688 9.72398 19.9688 14.282Z" stroke="#423D33" stroke-width="2" stroke-linecap="round" stroke-linejoin="round"/>
<path fill-rule="evenodd" clip-rule="evenodd" d="M21.2642 19.76C24.9762 23.472 24.4642 30 24.4642 30C24.4642 30 17.9382 30.508 14.2242 26.8C10.5102 23.092 11.0242 16.56 11.0242 16.56C11.0242 16.56 17.5502 16.048 21.2642 19.76Z" stroke="#423D33" stroke-width="2" stroke-linecap="round" stroke-linejoin="round"/>
<path fill-rule="evenodd" clip-rule="evenodd" d="M27.6751 19.76C23.9631 23.472 24.4751 30 24.4751 30C24.4751 30 31.0031 30.508 34.7151 26.8C38.4271 23.092 37.9151 16.56 37.9151 16.56C37.9151 16.56 31.3891 16.048 27.6751 19.76Z" stroke="#423D33" stroke-width="2" stroke-linecap="round" stroke-linejoin="round"/>
<path fill-rule="evenodd" clip-rule="evenodd" d="M21.2642 33.26C24.9762 36.972 24.4642 43.5 24.4642 43.5C24.4642 43.5 17.9382 44.008 14.2242 40.3C10.5102 36.592 11.0242 30.06 11.0242 30.06C11.0242 30.06 17.5502 29.548 21.2642 33.26Z" stroke="#423D33" stroke-width="2" stroke-linecap="round" stroke-linejoin="round"/>
<path fill-rule="evenodd" clip-rule="evenodd" d="M27.6751 33.26C23.9631 36.972 24.4751 43.5 24.4751 43.5C24.4751 43.5 31.0031 44.008 34.7151 40.3C38.4271 36.592 37.9151 30.06 37.9151 30.06C37.9151 30.06 31.3891 29.548 27.6751 33.26Z" stroke="#423D33" stroke-width="2" stroke-linecap="round" stroke-linejoin="round"/>
<path d="M24.4688 43.5V46.5" stroke="#423D33" stroke-width="2" stroke-linecap="round" stroke-linejoin="round"/>
<path d="M11.0234 16.554V10.554" stroke="#423D33" stroke-width="2" stroke-linecap="round" stroke-linejoin="round"/>
<path d="M37.9141 16.554V10.554" stroke="#423D33" stroke-width="2" stroke-linecap="round" stroke-linejoin="round"/>
<path d="M24.4688 6.03198V1.53198" stroke="#423D33" stroke-width="2" stroke-linecap="round" stroke-linejoin="round"/>
</svg>
